<svg xmlns="http://www.w3.org/2000/svg" viewBox="0 0 135 70.13"><path d="M42.56,37.88c0,8.35-6.63,14.25-16.64,14.25H0V1.73H23.91c10.73,0,17,4.68,17,12.82,0,5.33-2.74,9.65-7.27,11.59C38.52,27.08,42.56,31.4,42.56,37.88ZM11.16,11.74v10H22.68c4.25,0,6.41-1.87,6.41-5s-2.45-5-6.55-5ZM23.83,42.12c4.4,0,6.92-2,6.92-5.47,0-3.24-2.09-5.4-6.84-5.4H11.16V42.12Z" fill="#0ea5e9"/><path d="M85.6,26.07C85.6,10.87,94.68,0,111.45,0c13,0,21.17,6.48,23,17.86L122.54,20c-1.15-5.12-4.53-8.86-11.37-8.93-8.79.07-13.54,5.9-13.54,15.12S102.38,41,111.24,41c7.27,0,10.73-4.1,11.88-9.65l11.88,2c-1.87,12-10.08,18.72-23.55,18.72C94.53,52.13,85.6,41.48,85.6,26.07Z" fill="#0ea5e9"/><path d="M63,41.62l20.81-.29v10.8H45.36V42.7L64.51,27.87c5.62-4.18,7.13-6.92,7.13-10.16s-1.8-6.69-7-6.69c-6.19,0-8.28,4.6-8.71,11.16L45,20.81C45.5,7.34,53.14.86,65,.86s18.22,6.56,18.22,16c0,7.13-3.75,12.31-9.73,16.78Z" fill="#0ea5e9"/><rect x="81" y="61.13" width="52.87" height="9" fill="#09c687"/><rect x="27" y="61.13" width="54" height="9" fill="#07ad76"/><path d="M27,70.13H9a9,9,0,0,1-9-9H27Z" fill="#059669"/></svg>